
        <svg xmlns="http://www.w3.org/2000/svg" xmlns:xlink="http://www.w3.org/1999/xlink" version="1.1" width="3203.3898305084745" 
        height="935.593220338983" viewBox="0 0 3203.3898305084745 935.593220338983">
			
			<g transform="scale(10.169491525423728) translate(10, 10)">
				<defs id="SvgjsDefs2358"></defs><g id="SvgjsG2359" featureKey="symbolFeature-0" transform="matrix(0.8000068664550781,0,0,0.8000068664550781,-12.640108375629506,-4.000034247797566)" fill="#00adb5"><g xmlns="http://www.w3.org/2000/svg"><g><path fill="none" d="M34.698,82.783c0,0-2.757-0.817-5.889,1.869c-3.133,2.686-1.998,3.493-1.259,3.719    c0.739,0.226,2.999,1.344,2.999,1.344l0.179,0.105c0,0,2.088,1.411,2.648,1.944c0.559,0.534,1.811,1.139,2.619-2.907    c0.808-4.047-1.254-6.05-1.254-6.05L34.698,82.783z"></path><path d="M79.516,6.069L79.516,6.069c-0.001,0-8.687-1.532-15.154,3.402C60.36,12.524,56.513,18.42,54.16,22.44    c-0.926,1.58-1.621,2.9-2.007,3.641c-0.196,0.375-0.067,0.856,0.299,1.069l7.201,4.22c1.208,0.707,1.607,2.266,0.888,3.466    c-1.947,3.228-5.568,9.244-7.603,12.697c-4.815-8.645-12.858-23.651-12.858-23.651s0.161-0.135,0.132-0.23    c-0.029-0.095-1.361-3.836-1.526-4.135c0,0,0.165-0.307,0.123-0.571c-0.042-0.264-0.955-2.7-0.952-2.868    c0.003-0.168,7.546-5.154,11.637-7.263c4.091-2.108,6.174-3.014,6.44-3.296S56.086,5,56.086,5S50.66,5.898,44.397,8.865    c-6.263,2.967-7.824,3.801-8.403,3.988c-0.579,0.187-0.649,0.087-0.649,0.087s-1.008-2.13-1.245-2.433    c-0.228-0.292-1.843,0.005-3.565,1.164c0,0-2.726,1.79-2.272,2.64c0.313,0.585,1.252,1.923,1.317,2.059    c0.065,0.136-0.078,0.605-0.527,1.064c-0.449,0.459-2.574,0.483-4.773,2.801C22.082,22.555,15.8,30.343,15.8,30.343l5.173,1.221    c0,0,3.801-5.839,5.703-8.198c2.014-2.497,3.673-4.057,4.324-3.533c0.651,0.524,1.519,2.413,1.707,2.48s0.622,0.115,0.622,0.115    s2.497,3.46,2.567,3.605c0.069,0.145,0.511,0.045,0.511,0.045s10.28,18.234,14.458,25.999L36.659,76.649    c0,0-0.32-0.002-0.704,0.576c-0.384,0.578-2.709,4.197-3.528,4.773c-0.819,0.576-4.084,1.373-6.11,4.638    c-2.026,3.265-1.68,3.132-1.543,3.342c0.234,0.358,2.75,2.044,4.083,2.824c1.333,0.78,4.047,2.151,4.462,2.178    c0.25,0.016,0.303,0.384,2.158-2.982c1.855-3.365,0.95-6.602,1.052-7.598c0.101-0.996,2.118-4.795,2.434-5.413    c0.316-0.618,0.157-0.895,0.157-0.895l13.458-22.717c2.472,4.997,19.935,37.631,20.252,38.195c0.444,0.79,5.112-1.781,4.446-2.857    c-0.681-1.1-18.976-34.394-21.075-37.532c-0.198-0.296-0.503-0.798-0.891-1.463c0.186-0.306,0.436-0.726,0.75-1.261    c0.025-0.043,0.051-0.086,0.076-0.131c0.025-0.043,0.05-0.086,0.076-0.13c1.948-3.336,5.708-9.944,7.671-13.403    c0.694-1.215,2.246-1.63,3.455-0.922l7.2,4.214c0.365,0.214,0.838,0.095,1.069-0.259c0.457-0.7,1.247-1.985,2.171-3.567    c2.353-4.02,5.569-10.284,6.272-15.267C85.185,12.94,79.516,6.069,79.516,6.069z M35.995,88.857    c-0.808,4.047-2.06,3.441-2.619,2.907c-0.559-0.534-2.648-1.944-2.648-1.944l-0.179-0.105c0,0-2.26-1.118-2.999-1.344    c-0.739-0.226-1.873-1.033,1.259-3.719c3.133-2.686,5.889-1.869,5.889-1.869l0.042,0.025C34.74,82.807,36.803,84.81,35.995,88.857    z"></path></g></g></g><g id="SvgjsG2360" featureKey="nameFeature-0" transform="matrix(0.7583903074264526,0,0,0.7583903074264526,72.22990270374106,-7.635508166390636)" fill="#393e46"><path d="M18.555 40 l-7.3438 -12.422 l-1.6992 0 l0 12.422 l-5.8594 0 l0 -28.223 l10.234 0 c6.3867 0 9.082 3.7695 9.082 8.4375 c0 3.7891 -2.1484 6.25 -5.9766 7.0703 l8.4961 12.715 l-6.9336 0 z M9.5117 16.641 l0 6.7383 l3.457 0 c3.125 0 4.3945 -1.3281 4.3945 -3.3594 c0 -2.0117 -1.2695 -3.3789 -4.3945 -3.3789 l-3.457 0 z M47.061015624999996 16.934 l-10.469 0 l0 6.4063 l9.2773 0 l0 5.0977 l-9.2773 0 l0 6.3867 l10.469 0 l0 5.1758 l-16.367 0 l0 -28.223 l16.367 0 l0 5.1563 z M73.2815625 11.777000000000001 l5.8398 0 l0 28.223 l-6.7773 0 l-12.5 -20.176 l0 20.176 l-5.8398 0 l0 -28.223 l6.6992 0 l12.578 20.059 l0 -20.059 z M103.701640625 11.777000000000001 l0 5.1563 l-6.6992 0 l0 23.066 l-5.8008 0 l0 -23.066 l-6.7383 0 l0 -5.1563 l19.238 0 z M127.929625 40 l-2.0508 -5.8203 l-11.855 0 l-2.0508 5.8203 l-5.9961 0 l10.391 -28.223 l7.168 0 l10.391 28.223 l-5.9961 0 z M115.742625 29.277 l8.418 0 l-4.1992 -11.973 z M155.439921875 11.777000000000001 l0 5.1563 l-6.6992 0 l0 23.066 l-5.8008 0 l0 -23.066 l-6.7383 0 l0 -5.1563 l19.238 0 z M173.28090625 40.39063 c-8.3008 0 -14.434 -5.6641 -14.434 -14.512 c0 -8.8672 6.1328 -14.492 14.434 -14.492 c8.2813 0 14.414 5.625 14.414 14.492 c0 8.8477 -6.1328 14.512 -14.414 14.512 z M173.28090625 35.0195 c4.8633 0 8.5938 -3.418 8.5938 -9.1406 c0 -5.7031 -3.7305 -9.1016 -8.5938 -9.1016 s-8.5938 3.3984 -8.5938 9.1016 c0 5.7227 3.7305 9.1406 8.5938 9.1406 z M204.443796875 40.39063 c-6.1914 0 -11.035 -3.1641 -11.035 -10.273 l0 -18.34 l5.8594 0 l0 17.539 c0 4.2969 2.2852 5.8984 5.1758 5.8984 c2.9102 0 5.2148 -1.6211 5.2148 -5.8984 l0 -17.539 l5.8594 0 l0 18.34 c0 7.1094 -4.8633 10.273 -11.074 10.273 z M223.1444875 40 l0 -28.223 l5.8594 0 l0 28.223 l-5.8594 0 z M243.056621875 34.8242 l8.8477 0 l0 5.1758 l-14.707 0 l0 -28.223 l5.8594 0 l0 23.047 z M263.1445125 34.8242 l8.8477 0 l0 5.1758 l-14.707 0 l0 -28.223 l5.8594 0 l0 23.047 z M293.740703125 16.934 l-10.469 0 l0 6.4063 l9.2773 0 l0 5.0977 l-9.2773 0 l0 6.3867 l10.469 0 l0 5.1758 l-16.367 0 l0 -28.223 l16.367 0 l0 5.1563 z"></path></g><g id="SvgjsG2361" featureKey="sloganFeature-0" transform="matrix(2.5177385807037354,0,0,2.5177385807037354,75,20.76378601861457)" fill="#393e46"><path d="M7.34 20 l-3.3 -6.22 l-3.06 0 l0 6.22 l-0.98 0 l0 -15 l3.4 0 c0.78666 0 1.46 0.11666 2.02 0.35 s1.02 0.55 1.38 0.95 s0.62666 0.86334 0.8 1.39 s0.26 1.0767 0.26 1.65 c0 0.97334 -0.25 1.85 -0.75 2.63 s-1.1567 1.35 -1.97 1.71 l3.52 6.32 l-1.32 0 z M3.26 5.92 l-2.28 -0.000019531 l0 6.84 l2.42 0 c0.68 0 1.24 -0.10334 1.68 -0.31 s0.78334 -0.47332 1.03 -0.79998 s0.42 -0.7 0.52 -1.12 s0.15 -0.85 0.15 -1.29 c0 -0.46666 -0.08 -0.9 -0.24 -1.3 s-0.39 -0.75 -0.69 -1.05 s-0.66666 -0.53666 -1.1 -0.71 s-0.93 -0.26 -1.49 -0.26 z M9.88 20 l0 -15 l7.36 0 l0 1.16 l-6.32 0 l0 5.7 l6.26 0 l0 0.92 l-6.26 0 l0 6.06 l6.46 0 l0 1.16 l-7.5 0 z M25.480000000000004 20 l-5.8 -12.88 l0 12.88 l-1.1 0 l0 -15 l1.18 0 l5.8 12.3 l0.14 -12.3 l1.08 0 l0 15 l-1.3 0 z M32.46 6.1 l0 13.9 l-1.16 0 l0 -13.9 l-3.26 0 l0 -1.1 l7.68 0 l0 1.1 l-3.26 0 z M48.419999999999995 20 l-1.1 -4.42 l-4.88 0 l-1.1 4.42 l-1 0 l4.14 -15 l0.86 0 l4.12 15 l-1.04 0 z M44.94 5.9399999999999995 l-2.26 8.68 l4.38 0 z M58.71999999999999 6.1 l0 13.9 l-1.16 0 l0 -13.9 l-3.26 0 l0 -1.1 l7.68 0 l0 1.1 l-3.26 0 z M66.41999999999999 20.18 c-2.52 0 -3.78 -1.32 -3.78 -3.96 l0 -7.4 c0 -1.3333 0.31666 -2.3266 0.95 -2.98 s1.6567 -0.98 3.07 -0.98 c1.2933 0 2.25 0.33 2.87 0.99 s0.93 1.6367 0.93 2.93 l0 7.44 c0 0.66666 -0.07 1.2467 -0.21 1.74 s-0.37 0.90668 -0.69 1.24 s-0.73666 0.58 -1.25 0.74 s-1.1433 0.24 -1.89 0.24 z M69.39999999999999 8.76 c0 -0.33334 -0.04664 -0.67338 -0.13998 -1.02 s-0.24668 -0.66332 -0.46002 -0.94998 s-0.49668 -0.52 -0.85002 -0.7 s-0.79 -0.27 -1.31 -0.27 c-0.57334 0 -1.05 0.08 -1.43 0.24 s-0.68 0.38334 -0.9 0.67 s-0.37666 0.62332 -0.47 1.01 s-0.14 0.80666 -0.14 1.26 l0 7.1 c0 0.34666 0.04 0.7 0.12 1.06 s0.22334 0.69 0.43 0.99 s0.48666 0.54666 0.84 0.74 s0.79668 0.29 1.33 0.29 c0.57334 0 1.05 -0.07666 1.43 -0.23 s0.68334 -0.36334 0.91 -0.63 s0.39 -0.58332 0.49 -0.94998 s0.15 -0.76332 0.15 -1.19 l0 -7.42 z M75.59999999999998 20.18 c-2.52 0 -3.78 -1.32 -3.78 -3.96 l0 -7.4 c0 -1.3333 0.31666 -2.3266 0.95 -2.98 s1.6567 -0.98 3.07 -0.98 c1.2933 0 2.25 0.33 2.87 0.99 s0.93 1.6367 0.93 2.93 l0 7.44 c0 0.66666 -0.07 1.2467 -0.21 1.74 s-0.37 0.90668 -0.69 1.24 s-0.73666 0.58 -1.25 0.74 s-1.1433 0.24 -1.89 0.24 z M78.57999999999998 8.76 c0 -0.33334 -0.04664 -0.67338 -0.13998 -1.02 s-0.24668 -0.66332 -0.46002 -0.94998 s-0.49668 -0.52 -0.85002 -0.7 s-0.79 -0.27 -1.31 -0.27 c-0.57334 0 -1.05 0.08 -1.43 0.24 s-0.68 0.38334 -0.9 0.67 s-0.37666 0.62332 -0.47 1.01 s-0.14 0.80666 -0.14 1.26 l0 7.1 c0 0.34666 0.04 0.7 0.12 1.06 s0.22334 0.69 0.43 0.99 s0.48666 0.54666 0.84 0.74 s0.79668 0.29 1.33 0.29 c0.57334 0 1.05 -0.07666 1.43 -0.23 s0.68334 -0.36334 0.91 -0.63 s0.39 -0.58332 0.49 -0.94998 s0.15 -0.76332 0.15 -1.19 l0 -7.42 z M81.19999999999997 20 l0 -15 l1.08 0 l0 13.92 l5.1 0 l0 1.08 l-6.18 0 z"></path></g>
			</g>
		</svg>
	